<mxfile host="app.diagrams.net" agent="Mozilla/5.0 (Windows NT 10.0; Win64; x64) AppleWebKit/537.36 (KHTML, like Gecko) Chrome/131.0.0.0 Safari/537.36 Edg/131.0.0.0" version="25.0.3">
  <diagram name="PÃ¡gina-1" id="oqMxrNgiflbLZg95w_QN">
    <mxGraphModel dx="275" dy="544" grid="1" gridSize="10" guides="1" tooltips="1" connect="1" arrows="1" fold="1" page="1" pageScale="1" pageWidth="827" pageHeight="1169" math="0" shadow="0">
      <root>
        <mxCell id="0" />
        <mxCell id="1" parent="0" />
        <mxCell id="rNyy5rEElPeE8Sbauig2-41" value="" style="rounded=0;whiteSpace=wrap;html=1;" vertex="1" parent="1">
          <mxGeometry x="50" y="390" width="490" height="280" as="geometry" />
        </mxCell>
        <mxCell id="rNyy5rEElPeE8Sbauig2-11" value="" style="rounded=0;whiteSpace=wrap;html=1;fillColor=#ffe6cc;strokeColor=#d79b00;" vertex="1" parent="1">
          <mxGeometry x="190" y="470" width="60" height="180" as="geometry" />
        </mxCell>
        <mxCell id="rNyy5rEElPeE8Sbauig2-1" value="0" style="rounded=0;whiteSpace=wrap;html=1;" vertex="1" parent="1">
          <mxGeometry x="200" y="480" width="40" height="40" as="geometry" />
        </mxCell>
        <mxCell id="rNyy5rEElPeE8Sbauig2-2" value="32" style="rounded=0;whiteSpace=wrap;html=1;" vertex="1" parent="1">
          <mxGeometry x="200" y="520" width="40" height="40" as="geometry" />
        </mxCell>
        <mxCell id="rNyy5rEElPeE8Sbauig2-3" value="64" style="rounded=0;whiteSpace=wrap;html=1;" vertex="1" parent="1">
          <mxGeometry x="200" y="560" width="40" height="40" as="geometry" />
        </mxCell>
        <mxCell id="rNyy5rEElPeE8Sbauig2-4" value="..." style="text;strokeColor=none;fillColor=none;html=1;fontSize=24;fontStyle=1;verticalAlign=middle;align=center;" vertex="1" parent="1">
          <mxGeometry x="400" y="480" width="50" height="40" as="geometry" />
        </mxCell>
        <mxCell id="rNyy5rEElPeE8Sbauig2-12" value="" style="shape=flexArrow;endArrow=classic;html=1;rounded=0;" edge="1" parent="1">
          <mxGeometry width="50" height="50" relative="1" as="geometry">
            <mxPoint x="220" y="600" as="sourcePoint" />
            <mxPoint x="220" y="640" as="targetPoint" />
          </mxGeometry>
        </mxCell>
        <mxCell id="rNyy5rEElPeE8Sbauig2-13" value="" style="endArrow=classic;html=1;rounded=0;" edge="1" parent="1">
          <mxGeometry width="50" height="50" relative="1" as="geometry">
            <mxPoint x="219.82999999999998" y="440" as="sourcePoint" />
            <mxPoint x="219.82999999999998" y="460" as="targetPoint" />
          </mxGeometry>
        </mxCell>
        <mxCell id="rNyy5rEElPeE8Sbauig2-14" value="0" style="text;strokeColor=none;fillColor=none;html=1;fontSize=24;fontStyle=1;verticalAlign=middle;align=center;" vertex="1" parent="1">
          <mxGeometry x="200" y="400" width="40" height="40" as="geometry" />
        </mxCell>
        <mxCell id="rNyy5rEElPeE8Sbauig2-15" value="Bank" style="text;strokeColor=none;fillColor=none;html=1;fontSize=24;fontStyle=1;verticalAlign=middle;align=center;" vertex="1" parent="1">
          <mxGeometry x="80" y="400" width="80" height="40" as="geometry" />
        </mxCell>
        <mxCell id="rNyy5rEElPeE8Sbauig2-16" value="" style="rounded=0;whiteSpace=wrap;html=1;fillColor=#ffe6cc;strokeColor=#d79b00;" vertex="1" parent="1">
          <mxGeometry x="260" y="470" width="60" height="180" as="geometry" />
        </mxCell>
        <mxCell id="rNyy5rEElPeE8Sbauig2-17" value="1" style="rounded=0;whiteSpace=wrap;html=1;" vertex="1" parent="1">
          <mxGeometry x="270" y="480" width="40" height="40" as="geometry" />
        </mxCell>
        <mxCell id="rNyy5rEElPeE8Sbauig2-18" value="33" style="rounded=0;whiteSpace=wrap;html=1;" vertex="1" parent="1">
          <mxGeometry x="270" y="520" width="40" height="40" as="geometry" />
        </mxCell>
        <mxCell id="rNyy5rEElPeE8Sbauig2-19" value="65" style="rounded=0;whiteSpace=wrap;html=1;" vertex="1" parent="1">
          <mxGeometry x="270" y="560" width="40" height="40" as="geometry" />
        </mxCell>
        <mxCell id="rNyy5rEElPeE8Sbauig2-20" value="" style="shape=flexArrow;endArrow=classic;html=1;rounded=0;" edge="1" parent="1">
          <mxGeometry width="50" height="50" relative="1" as="geometry">
            <mxPoint x="290" y="600" as="sourcePoint" />
            <mxPoint x="290" y="640" as="targetPoint" />
          </mxGeometry>
        </mxCell>
        <mxCell id="rNyy5rEElPeE8Sbauig2-21" value="" style="endArrow=classic;html=1;rounded=0;" edge="1" parent="1">
          <mxGeometry width="50" height="50" relative="1" as="geometry">
            <mxPoint x="289.83" y="440" as="sourcePoint" />
            <mxPoint x="289.83" y="460" as="targetPoint" />
          </mxGeometry>
        </mxCell>
        <mxCell id="rNyy5rEElPeE8Sbauig2-22" value="1" style="text;strokeColor=none;fillColor=none;html=1;fontSize=24;fontStyle=1;verticalAlign=middle;align=center;" vertex="1" parent="1">
          <mxGeometry x="270" y="400" width="40" height="40" as="geometry" />
        </mxCell>
        <mxCell id="rNyy5rEElPeE8Sbauig2-23" value="" style="rounded=0;whiteSpace=wrap;html=1;fillColor=#ffe6cc;strokeColor=#d79b00;" vertex="1" parent="1">
          <mxGeometry x="460" y="470" width="60" height="180" as="geometry" />
        </mxCell>
        <mxCell id="rNyy5rEElPeE8Sbauig2-24" value="0" style="rounded=0;whiteSpace=wrap;html=1;" vertex="1" parent="1">
          <mxGeometry x="470" y="480" width="40" height="40" as="geometry" />
        </mxCell>
        <mxCell id="rNyy5rEElPeE8Sbauig2-25" value="63" style="rounded=0;whiteSpace=wrap;html=1;" vertex="1" parent="1">
          <mxGeometry x="470" y="520" width="40" height="40" as="geometry" />
        </mxCell>
        <mxCell id="rNyy5rEElPeE8Sbauig2-26" value="95" style="rounded=0;whiteSpace=wrap;html=1;" vertex="1" parent="1">
          <mxGeometry x="470" y="560" width="40" height="40" as="geometry" />
        </mxCell>
        <mxCell id="rNyy5rEElPeE8Sbauig2-27" value="" style="shape=flexArrow;endArrow=classic;html=1;rounded=0;exitX=0.5;exitY=1;exitDx=0;exitDy=0;" edge="1" parent="1" source="rNyy5rEElPeE8Sbauig2-26">
          <mxGeometry width="50" height="50" relative="1" as="geometry">
            <mxPoint x="490" y="610" as="sourcePoint" />
            <mxPoint x="489.83" y="640" as="targetPoint" />
          </mxGeometry>
        </mxCell>
        <mxCell id="rNyy5rEElPeE8Sbauig2-28" value="" style="endArrow=classic;html=1;rounded=0;" edge="1" parent="1">
          <mxGeometry width="50" height="50" relative="1" as="geometry">
            <mxPoint x="489.83" y="440" as="sourcePoint" />
            <mxPoint x="489.83" y="460" as="targetPoint" />
          </mxGeometry>
        </mxCell>
        <mxCell id="rNyy5rEElPeE8Sbauig2-29" value="31" style="text;strokeColor=none;fillColor=none;html=1;fontSize=24;fontStyle=1;verticalAlign=middle;align=center;" vertex="1" parent="1">
          <mxGeometry x="470" y="400" width="40" height="40" as="geometry" />
        </mxCell>
        <mxCell id="rNyy5rEElPeE8Sbauig2-30" value="..." style="text;strokeColor=none;fillColor=none;html=1;fontSize=24;fontStyle=1;verticalAlign=middle;align=center;" vertex="1" parent="1">
          <mxGeometry x="400" y="520" width="50" height="40" as="geometry" />
        </mxCell>
        <mxCell id="rNyy5rEElPeE8Sbauig2-31" value="..." style="text;strokeColor=none;fillColor=none;html=1;fontSize=24;fontStyle=1;verticalAlign=middle;align=center;" vertex="1" parent="1">
          <mxGeometry x="400" y="560" width="50" height="40" as="geometry" />
        </mxCell>
        <mxCell id="rNyy5rEElPeE8Sbauig2-32" value="" style="rounded=0;whiteSpace=wrap;html=1;fillColor=#ffe6cc;strokeColor=#d79b00;" vertex="1" parent="1">
          <mxGeometry x="330" y="470" width="60" height="180" as="geometry" />
        </mxCell>
        <mxCell id="rNyy5rEElPeE8Sbauig2-33" value="2" style="rounded=0;whiteSpace=wrap;html=1;" vertex="1" parent="1">
          <mxGeometry x="340" y="480" width="40" height="40" as="geometry" />
        </mxCell>
        <mxCell id="rNyy5rEElPeE8Sbauig2-34" value="34" style="rounded=0;whiteSpace=wrap;html=1;" vertex="1" parent="1">
          <mxGeometry x="340" y="520" width="40" height="40" as="geometry" />
        </mxCell>
        <mxCell id="rNyy5rEElPeE8Sbauig2-35" value="66" style="rounded=0;whiteSpace=wrap;html=1;" vertex="1" parent="1">
          <mxGeometry x="340" y="560" width="40" height="40" as="geometry" />
        </mxCell>
        <mxCell id="rNyy5rEElPeE8Sbauig2-36" value="" style="shape=flexArrow;endArrow=classic;html=1;rounded=0;exitX=0.5;exitY=1;exitDx=0;exitDy=0;" edge="1" parent="1" source="rNyy5rEElPeE8Sbauig2-35">
          <mxGeometry width="50" height="50" relative="1" as="geometry">
            <mxPoint x="360" y="610" as="sourcePoint" />
            <mxPoint x="359.83" y="640" as="targetPoint" />
          </mxGeometry>
        </mxCell>
        <mxCell id="rNyy5rEElPeE8Sbauig2-37" value="" style="endArrow=classic;html=1;rounded=0;" edge="1" parent="1">
          <mxGeometry width="50" height="50" relative="1" as="geometry">
            <mxPoint x="359.83" y="440" as="sourcePoint" />
            <mxPoint x="359.83" y="460" as="targetPoint" />
          </mxGeometry>
        </mxCell>
        <mxCell id="rNyy5rEElPeE8Sbauig2-38" value="2" style="text;strokeColor=none;fillColor=none;html=1;fontSize=24;fontStyle=1;verticalAlign=middle;align=center;" vertex="1" parent="1">
          <mxGeometry x="340" y="400" width="40" height="40" as="geometry" />
        </mxCell>
        <mxCell id="rNyy5rEElPeE8Sbauig2-39" value="Words" style="text;strokeColor=none;fillColor=none;html=1;fontSize=24;fontStyle=1;verticalAlign=middle;align=center;" vertex="1" parent="1">
          <mxGeometry x="70" y="540" width="80" height="40" as="geometry" />
        </mxCell>
        <mxCell id="rNyy5rEElPeE8Sbauig2-40" value="" style="shape=curlyBracket;whiteSpace=wrap;html=1;rounded=1;labelPosition=left;verticalLabelPosition=middle;align=right;verticalAlign=middle;" vertex="1" parent="1">
          <mxGeometry x="160" y="480" width="20" height="160" as="geometry" />
        </mxCell>
      </root>
    </mxGraphModel>
  </diagram>
</mxfile>
